Coordinates
version=1
nRows=20
nColumns=34
inDegrees=yes

Units are S.I. units (second, meters, Newtons, ...)
If the header above contains a line with 'inDegrees', this indicates whether rotational values are in degrees (yes) or radians (no).

endheader
time	pelvis_tilt	pelvis_list	pelvis_rotation	pelvis_tx	pelvis_ty	pelvis_tz	hip_flexion_r	hip_adduction_r	hip_rotation_r	knee_angle_r	ankle_angle_r	subtalar_angle_r	mtp_angle_r	hip_flexion_l	hip_adduction_l	hip_rotation_l	knee_angle_l	ankle_angle_l	subtalar_angle_l	mtp_angle_l	lumbar_extension	lumbar_bending	lumbar_rotation	arm_flex_r	arm_add_r	arm_rot_r	elbow_flex_r	pro_sup_r	arm_flex_l	arm_add_l	arm_rot_l	elbow_flex_l	pro_sup_l
      0.00000000	      4.46921310	     -1.83603031	   -172.78527364	      0.05427329	      1.10349274	      0.09102655	     16.23552483	     -2.81706376	     -1.75792783	     16.84556245	     -0.26911507	     -8.35197099	      0.00000000	     12.33789656	     -2.08890047	     -3.76638776	     40.39223331	      1.53921229	     -6.20964303	      0.00000000	    -12.16446963	      2.61810851	     -3.83962909	      4.13573831	     -6.13565609	     -2.72790322	     51.70468539	     89.54567834	      8.62103886	     -6.75871907	     17.97752928	     54.88652207	     84.40597085
      0.00833330	      5.59535413	     -1.68842848	   -173.21468983	      0.05344709	      1.10096724	      0.09113964	     17.13057130	     -2.34330237	      1.91644926	     17.24985754	     -0.72210341	    -12.58495259	      0.00000000	     13.89648676	     -3.36124535	     -6.11682377	     41.18212576	     -0.57233634	     -4.82683648	      0.00000000	     -9.96269398	      2.11578233	     -3.37084232	      4.05567488	     -4.67418035	     -4.27638948	     51.78185370	     89.90750172	      6.24242909	     -6.12279940	     15.24910211	     56.93706779	     84.33956112
      0.01666670	      6.48450022	     -1.13826756	   -173.91863638	      0.05240914	      1.10077281	      0.09097844	     17.89787535	     -2.07998140	      2.23878923	     17.24614162	      1.21251561	    -11.71544104	      0.00000000	     14.66099226	     -4.13618864	     -6.42019173	     40.31731694	     -1.26035105	     -3.40867721	      0.00000000	     -8.92120114	      2.71905640	     -2.43337459	      4.00524584	     -4.48390426	     -5.16195715	     52.36009297	     90.19688506	      5.45585902	     -5.54067637	     13.97042017	     58.38502632	     84.53986609
      0.02500000	      7.45898573	     -0.75379981	   -173.96148270	      0.05148615	      1.10020134	      0.09097942	     18.49106525	     -1.99668428	      1.82106701	     16.40899705	      2.23366015	    -11.10485859	      0.00000000	     16.13082638	     -4.50532665	     -6.24275566	     40.05840186	     -1.24359395	     -2.99774890	      0.00000000	     -7.61743973	      3.14310408	     -2.51662892	      3.79147014	     -4.03258670	     -6.72382656	     52.59612964	     90.68110848	      4.08582496	     -5.32675541	     12.78743170	     60.52951884	     85.29977833
      0.03333330	      8.17715923	     -0.53945723	   -174.09650156	      0.05043907	      1.09972218	      0.09054962	     18.83473056	     -1.81289149	      1.57178069	     15.89189831	      2.83555546	    -11.01226137	      0.00000000	     17.22940301	     -4.83969252	     -5.99617866	     39.72850804	     -0.78906498	     -2.77184445	      0.00000000	     -6.73359906	      3.39178495	     -2.46984821	      3.55722058	     -3.81957663	     -7.44439670	     53.37571007	     91.22351892	      2.80190789	     -5.06344698	     11.98698383	     62.49959356	     86.26534761
      0.04166670	      8.37446813	     -0.68236028	   -174.18268354	      0.04923388	      1.10022251	      0.09026477	     18.36869116	     -1.97881241	      1.08256903	     15.16538863	      2.44119765	    -10.96311880	      0.00000000	     17.49658699	     -4.79265197	     -6.02052437	     38.84767199	     -0.91490031	     -2.63799799	      0.00000000	     -6.10642133	      3.09630703	     -2.22183515	      3.38415517	     -3.86909491	     -7.57115210	     53.51741781	     91.29328628	      2.29887798	     -4.82968086	     11.94865287	     63.00097470	     86.43157758
      0.05000000	      9.09232364	     -0.85901898	   -174.27512158	      0.04799894	      1.09981104	      0.08999364	     18.61746685	     -2.25626815	      0.63715465	     14.70733772	      1.82007401	    -11.03491863	      0.00000000	     18.21337899	     -4.71377663	     -6.18329901	     37.78295159	     -1.00391839	     -2.13402966	      0.00000000	     -5.31058843	      2.78903037	     -2.06813662	      2.98218376	     -3.62219793	     -8.46346788	     54.92439542	     91.53577091	      1.09729769	     -4.81529849	     11.18279805	     65.43208155	     87.27414351
      0.05833330	      9.34690348	     -1.03362260	   -174.36959768	      0.04623878	      1.10040929	      0.09000418	     18.17037446	     -2.49414657	      0.12280622	     13.88998346	      0.74517355	    -10.80684220	      0.00000000	     18.13832361	     -4.61710553	     -6.39950975	     36.18126228	     -1.42928749	     -1.75312362	      0.00000000	     -4.60966889	      2.50636217	     -1.93126833	      2.72513486	     -3.64027080	     -8.57462918	     55.05278812	     91.57961908	      0.68004709	     -4.71251754	     11.06741695	     65.69789638	     87.43305217
      0.06666670	      9.66247064	     -1.19615504	   -174.48215226	      0.04450376	      1.10109137	      0.09015761	     17.85635966	     -2.73732727	     -0.19837849	     13.10298889	     -0.46327796	    -10.52819817	      0.00000000	     18.05314865	     -4.48245489	     -6.57731965	     34.44173585	     -1.71294108	     -1.32228485	      0.00000000	     -3.96590109	      2.24574692	     -1.69976056	      2.49543816	     -3.63382934	     -8.75468546	     55.30603543	     91.61302684	      0.25571497	     -4.59658321	     10.88739720	     66.18058119	     87.61305333
      0.07500000	     10.03376618	     -1.34807851	   -174.73921399	      0.04289996	      1.10145790	      0.08996088	     17.72043395	     -2.87643483	      0.03181708	     12.51603992	     -2.02810179	    -11.00310645	      0.00000000	     17.93731075	     -4.41924626	     -7.01138257	     32.69946164	     -1.95173779	     -0.59697618	      0.00000000	     -3.66689602	      1.94648156	     -1.27491492	      2.01842552	     -3.30231684	     -9.81777445	     56.32533905	     91.74327827	     -0.55783821	     -4.40092044	      9.79994689	     68.24975556	     88.62880689
      0.08333330	     10.30350813	     -1.27144889	   -174.86302808	      0.04112161	      1.10222848	      0.09035440	     17.40015270	     -2.83222800	      0.18846812	     11.73904959	     -2.78228877	    -10.54876463	      0.00000000	     17.72464015	     -4.48265406	     -7.01728714	     30.91230682	     -2.40709556	     -0.32427691	      0.00000000	     -2.99969982	      2.02747653	     -1.15193455	      1.97775551	     -3.35001519	     -9.91308214	     56.62101666	     91.77584118	     -0.98490675	     -4.25871661	      9.76385947	     68.54536685	     88.83310184
      0.09166670	     10.54860556	     -1.28092979	   -175.15332940	      0.03976340	      1.10277046	      0.09033374	     17.20895067	     -2.84464646	      0.53109066	     11.34255350	     -3.74040481	    -10.49018320	      0.00000000	     17.52357183	     -4.52916038	     -7.18527309	     29.36892266	     -2.79851349	     -0.16501129	      0.00000000	     -2.84306635	      1.94597575	     -0.69802690	      1.56771533	     -3.20589598	    -10.52333234	     57.58439383	     91.91415789	     -1.61998718	     -4.05341278	      8.95667477	     70.33706375	     89.90792978
      0.10000000	     10.75519746	     -1.11693048	   -175.33254067	      0.03813661	      1.10327527	      0.09075401	     16.92310579	     -2.70157171	      0.76096181	     10.87714935	     -4.17031073	    -10.20868933	      0.00000000	     17.32123929	     -4.67490076	     -7.05260832	     28.04109159	     -2.89144611	     -0.04047242	      0.00000000	     -2.35535794	      2.13642938	     -0.63333903	      1.47625644	     -3.28084879	    -10.63453821	     57.74285971	     91.94034625	     -1.93881837	     -3.86776332	      8.92426953	     70.64150807	     90.12480803
      0.10833330	     11.00397723	     -1.03438814	   -175.69629694	      0.03682576	      1.10382548	      0.09082023	     16.86299071	     -2.60269834	      1.31592404	     10.65954140	     -4.60066745	    -10.33544987	      0.00000000	     17.24116864	     -4.80761764	     -7.12767503	     26.70141698	     -3.05899424	      0.15795840	      0.00000000	     -2.30897017	      2.20158368	     -0.20784624	      1.25238090	     -3.18687594	    -11.09121284	     58.94738874	     92.08773379	     -2.50583913	     -3.55125847	      8.02944464	     72.37136605	     91.28491895
      0.11666670	     11.19048869	     -0.85645953	   -175.85524794	      0.03505768	      1.10457772	      0.09131709	     16.57369670	     -2.48202992	      1.58954911	     10.33681448	     -4.75851507	    -10.19284513	      0.00000000	     17.06820033	     -4.99108594	     -6.93212287	     25.43950713	     -3.42700125	      0.29167666	      0.00000000	     -1.81836688	      2.40013590	     -0.15848721	      1.35637155	     -3.24300609	    -11.15119101	     59.23692709	     92.11644955	     -2.77079255	     -3.35439270	      7.99901979	     72.61994164	     91.50247834
      0.12500000	     11.37419003	     -0.67049749	   -175.97921806	      0.03374218	      1.10474816	      0.09178968	     16.47681147	     -2.37569060	      1.75791151	     10.31098199	     -4.67912050	    -10.19119371	      0.00000000	     17.05602326	     -5.21434167	     -6.76772832	     24.51868173	     -3.47233309	      0.31834684	      0.00000000	     -1.60899357	      2.50527138	     -0.10162201	      1.55584019	     -3.22886796	    -11.16093629	     59.41749773	     92.12466998	     -2.67403225	     -3.21411999	      7.96969100	     72.81377060	     91.56313545
      0.13333330	     11.62032625	     -0.63513011	   -176.45651446	      0.03209050	      1.10452306	      0.09191672	     16.53717168	     -2.29224354	      2.85770135	     10.48169350	     -4.68434690	    -10.43535130	      0.00000000	     16.92458964	     -5.32809960	     -6.74974995	     23.49103980	     -4.39498071	     -0.40445058	      0.00000000	     -1.47001109	      2.64382678	      0.41040338	      1.21888051	     -3.26891000	    -11.38689334	     60.99823778	     92.24977027	     -3.37505072	     -2.71644474	      6.94908162	     74.41771192	     92.44525164
      0.14166670	     11.73642236	     -0.42286323	   -176.58383816	      0.03036672	      1.10424292	      0.09254966	     16.41379443	     -2.10064859	      3.21363012	     10.59861796	     -4.38289644	    -10.53837539	      0.00000000	     16.87156365	     -5.56097062	     -6.48356213	     22.76778064	     -4.63777244	     -0.29008899	      0.00000000	     -1.21403502	      2.92059663	      0.39334840	      1.19915872	     -3.34705219	    -11.46725844	     61.20617943	     92.28341655	     -3.52411779	     -2.46093061	      6.85001637	     74.78747619	     92.70555296
      0.15000000	     11.98814419	     -0.35013215	   -176.89214420	      0.02885266	      1.10335261	      0.09281186	     16.65002900	     -2.01043106	      3.78826958	     11.11768183	     -4.11787303	    -10.82624462	      0.00000000	     16.90494582	     -5.68846898	     -6.51954819	     22.10664022	     -5.17362523	     -0.57048377	      0.00000000	     -0.95179385	      3.04414940	      0.53900128	      1.16272439	     -3.37996958	    -11.49755755	     62.00387244	     92.37394231	     -3.62085479	     -2.14586567	      6.29582003	     75.70363159	     93.26586815
      0.15833330	     12.01559494	     -0.23349154	   -177.02590365	      0.02720252	      1.10254936	      0.09326282	     16.67131607	     -1.90854521	      3.89536146	     11.71004314	     -4.10112791	    -10.87251062	      0.00000000	     16.77649340	     -5.82984786	     -6.28096046	     21.71440489	     -5.12437553	     -0.54795506	      0.00000000	     -0.75210002	      3.14198036	      0.47666389	      1.24003826	     -3.40285265	    -11.50947219	     62.13446407	     92.38402284	     -3.46399700	     -2.01322457	      6.25726813	     75.88452716	     93.33362646
